<svg xmlns="http://www.w3.org/2000/svg" width="22" height="22" viewBox="0 0 22 22" fill="none">
<g clip-path="url(#clip0_3680_2739)">
<path d="M11.0001 20.9489C11.385 20.94 11.7545 20.7953 12.043 20.5403C12.3315 20.2853 12.5206 19.9365 12.5767 19.5555H9.3623C9.42004 19.9468 9.61795 20.3039 9.91921 20.5602C10.2205 20.8165 10.6046 20.9546 11.0001 20.9489Z" fill="#309C54"/>
<path d="M19.8676 17.0072C19.2783 16.4819 18.7624 15.8796 18.3337 15.2167C17.8657 14.3016 17.5852 13.3022 17.5087 12.2772V9.25833C17.5062 8.89163 17.4735 8.52576 17.4109 8.16444C16.9299 8.06829 16.4677 7.89494 16.042 7.65111C16.2043 8.17351 16.2867 8.71742 16.2865 9.26444V12.2833C16.3614 13.5337 16.7053 14.7531 17.2948 15.8583C17.7167 16.5269 18.2173 17.1424 18.7859 17.6917H3.13537C3.70395 17.1424 4.20457 16.5269 4.62648 15.8583C5.21597 14.7531 5.55991 13.5337 5.63481 12.2833V9.25833C5.6316 8.55108 5.76792 7.85015 6.03597 7.19566C6.30403 6.54117 6.69855 5.94598 7.19695 5.44418C7.69534 4.94237 8.28783 4.54381 8.94048 4.2713C9.59313 3.9988 10.2931 3.85771 11.0004 3.85611C12.0354 3.85693 13.0473 4.16304 13.9093 4.73611C13.8142 4.38715 13.7609 4.02817 13.7504 3.66666V3.28166C13.1123 2.96777 12.4268 2.76129 11.7215 2.67055V1.90055C11.7215 1.68418 11.6355 1.47667 11.4825 1.32367C11.3295 1.17067 11.122 1.08472 10.9056 1.08472C10.6893 1.08472 10.4818 1.17067 10.3288 1.32367C10.1758 1.47667 10.0898 1.68418 10.0898 1.90055V2.70111C8.51053 2.92389 7.06516 3.7105 6.02056 4.91573C4.97595 6.12096 4.40265 7.66341 4.40648 9.25833V12.2772C4.32994 13.3022 4.04946 14.3016 3.58148 15.2167C3.16035 15.8781 2.65271 16.4803 2.07204 17.0072C2.00685 17.0645 1.95461 17.135 1.91878 17.214C1.88295 17.293 1.86437 17.3788 1.86426 17.4656V18.2967C1.86426 18.4587 1.92864 18.6142 2.04325 18.7288C2.15785 18.8434 2.31329 18.9078 2.47537 18.9078H19.4643C19.6263 18.9078 19.7818 18.8434 19.8964 18.7288C20.011 18.6142 20.0754 18.4587 20.0754 18.2967V17.4656C20.0753 17.3788 20.0567 17.293 20.0208 17.214C19.985 17.135 19.9328 17.0645 19.8676 17.0072Z" fill="#309C54"/>
<path d="M18.3329 6.7222C20.0204 6.7222 21.3885 5.35418 21.3885 3.66664C21.3885 1.9791 20.0204 0.611084 18.3329 0.611084C16.6454 0.611084 15.2773 1.9791 15.2773 3.66664C15.2773 5.35418 16.6454 6.7222 18.3329 6.7222Z" fill="#309C54"/>
</g>
<defs>
<clipPath id="clip0_3680_2739">
<rect width="22" height="22" fill="white"/>
</clipPath>
</defs>
</svg>